# xmcd CD database file
#
# Track frame offsets:
#	150
#	16269
#	36450
#	54222
#	84388
#	111138
#	138757
#	158204
#	178377
#	202421
#	223121
#	232085
#
# Disc length: 4002 seconds
#
# Revision: 0
# Processed by: cddbd v1.4PL0 Copyright (c) Steve Scherf et al.
# Submitted via: Feurio! 1.65 - http://www.feurio.com
#
DISCID=ac0fa00c
DTITLE=The Dennis Hormes Blues Band - Live
DYEAR=2002
DGENRE=blues
TTITLE0=ME Blues
TTITLE1=Hold on
TTITLE2=Still in love with you
TTITLE3=Little Wing
TTITLE4=Everyday shuffle
TTITLE5=It's true
TTITLE6=Sorry !!
TTITLE7=Just 1 more
TTITLE8=Don't believe a word
TTITLE9=Freedom
TTITLE10=Introduction FJ
TTITLE11=Freeway Jam
EXTD=
EXTT0=
EXTT1=
EXTT2=
EXTT3=
EXTT4=
EXTT5=
EXTT6=
EXTT7=
EXTT8=
EXTT9=
EXTT10=
EXTT11=
PLAYORDER=
